<svg xmlns="http://www.w3.org/2000/svg" viewBox="0 0 260 300" role="img" aria-label="العباقرة خدام 2026">
  <defs>
    <linearGradient id="cup" x1="0" y1="0" x2="0" y2="1">
      <stop offset="0" stop-color="#1b4a86"/>
      <stop offset="1" stop-color="#0b264a"/>
    </linearGradient>
    <linearGradient id="gold" x1="0" y1="0" x2="1" y2="1">
      <stop offset="0" stop-color="#f4d67a"/>
      <stop offset="0.5" stop-color="#d9a938"/>
      <stop offset="1" stop-color="#b8862a"/>
    </linearGradient>
  </defs>
  <path d="M60 70 C10 70 10 150 70 155" fill="none" stroke="url(#gold)" stroke-width="9"/>
  <path d="M200 70 C250 70 250 150 190 155" fill="none" stroke="url(#gold)" stroke-width="9"/>
  <path d="M55 60 H205 L192 150 C185 200 150 215 130 215 C110 215 75 200 68 150 Z" fill="url(#cup)" stroke="url(#gold)" stroke-width="5"/>
  <rect x="122" y="215" width="16" height="35" fill="url(#cup)"/>
  <path d="M92 250 H168 L182 285 H78 Z" fill="url(#cup)" stroke="url(#gold)" stroke-width="4"/>
  <g transform="translate(130 92)">
    <path d="M-30 -8 a30 30 0 0 1 60 0 q0 22 -14 30 h-32 q-14 -8 -14 -30 z" fill="#123a6b"/>
    <path d="M-2 -34 a30 30 0 0 0 -28 26 q0 22 14 30 h14 z" fill="#2b9fd6"/>
    <path d="M2 -34 a30 30 0 0 1 28 26 q0 22 -14 30 h-14 z" fill="#e8821e"/>
    <rect x="-8" y="24" width="16" height="12" rx="2" fill="#d9a938"/>
    <rect x="-9" y="36" width="18" height="4" rx="2" fill="#f4d67a"/>
  </g>
  <text x="130" y="185" text-anchor="middle" font-family="Segoe UI, Tahoma" font-size="26" fill="url(#gold)" font-weight="bold">العباقرة خدام</text>
  <text x="130" y="278" text-anchor="middle" font-family="Segoe UI, Tahoma" font-size="15" fill="#f4d67a">٢٠٢٦</text>
</svg>
